<svg width="16" height="16" viewBox="0 0 16 16" fill="none" xmlns="http://www.w3.org/2000/svg">
<path d="M10.3415 11.4301L11.4301 10.3415L8.5531 7.46453V3.88777H6.99799V8.08657L10.3415 11.4301ZM7.77555 15.5511C6.69993 15.5511 5.68911 15.3469 4.74308 14.9384C3.79706 14.5299 2.97415 13.976 2.27435 13.2768C1.57455 12.5775 1.02067 11.7546 0.612714 10.808C0.204757 9.86147 0.000519354 8.85065 9.84246e-07 7.77555C-0.000517385 6.70045 0.20372 5.68963 0.612714 4.74309C1.02171 3.79654 1.57559 2.97363 2.27435 2.27435C2.97311 1.57507 3.79602 1.02119 4.74308 0.612713C5.69015 0.204238 6.70097 0 7.77555 0C8.85013 0 9.86095 0.204238 10.808 0.612713C11.7551 1.02119 12.578 1.57507 13.2767 2.27435C13.9755 2.97363 14.5296 3.79654 14.9392 4.74309C15.3487 5.68963 15.5526 6.70045 15.5511 7.77555C15.5495 8.85065 15.3453 9.86147 14.9384 10.808C14.5315 11.7546 13.9776 12.5775 13.2767 13.2768C12.5759 13.976 11.753 14.5302 10.808 14.9392C9.86302 15.3482 8.8522 15.5521 7.77555 15.5511Z" fill="#A8A8A8"/>
</svg>
