<svg width="13" height="15" viewBox="0 0 13 15" fill="none" xmlns="http://www.w3.org/2000/svg">
<path d="M0.928571 0C1.44219 0 1.85714 0.418945 1.85714 0.9375V1.40625L3.85938 0.902344C4.96496 0.624023 6.13147 0.75293 7.1529 1.26855C8.49643 1.94824 10.0779 1.94824 11.4214 1.26855L11.7 1.12793C12.2978 0.823242 13 1.2627 13 1.93652V10.1309C13 10.5205 12.7592 10.8721 12.3964 11.0098L11.3895 11.3906C10.0489 11.8975 8.55737 11.8184 7.27768 11.1738C6.1779 10.6172 4.91853 10.4795 3.72299 10.7812L1.85714 11.25V14.0625C1.85714 14.5811 1.44219 15 0.928571 15C0.414955 15 0 14.5811 0 14.0625V0.9375C0 0.418945 0.414955 0 0.928571 0ZM1.85714 5.48145L3.71429 5.07422V6.99316L1.85714 7.40039V9.31641L3.27321 8.95898C3.42121 8.9209 3.56629 8.88867 3.71429 8.8623V6.99023L4.84308 6.74414C5.08393 6.69141 5.32768 6.6709 5.57143 6.68262V4.80762C5.96607 4.81934 6.36071 4.88379 6.74375 4.99512L7.42857 5.19727V7.15137L6.21853 6.79102C6.0067 6.72949 5.78906 6.69141 5.57143 6.67969V8.77148C6.20402 8.82715 6.8279 8.96777 7.42857 9.19336V7.14844L8.08728 7.34473C8.47902 7.46191 8.87946 7.53223 9.28571 7.56152V5.68066C9.05937 5.65723 8.83304 5.61328 8.6125 5.54883L7.42857 5.19727V3.38086C7.05134 3.26953 6.67991 3.12305 6.32009 2.94141C6.08214 2.82129 5.82969 2.73633 5.57143 2.68359V4.80469C5.1942 4.79297 4.81696 4.82812 4.44844 4.91016L3.71429 5.07422V2.87109L1.85714 3.33984V5.48145ZM9.28571 9.83496C9.77321 9.87891 10.2694 9.81445 10.7366 9.63574L11.1429 9.4834V7.38281L10.9136 7.43555C10.3797 7.56152 9.83125 7.60254 9.28571 7.56738V9.83496ZM11.1429 5.45801V3.38379C10.5364 3.5625 9.9125 3.65039 9.28571 3.65039V5.68359C9.68906 5.72461 10.0982 5.69824 10.4958 5.60742L11.1429 5.45508V5.45801Z" fill="#A8A8A8"/>
</svg>
