<svg width="21" height="21" viewBox="0 0 21 21" fill="none" xmlns="http://www.w3.org/2000/svg">
<path fill-rule="evenodd" clip-rule="evenodd" d="M6.76318 6.62286L7.80921 3.48765L4.63988 0.320101C5.28668 0.113764 5.97809 2.84736e-07 6.69404 2.84736e-07C7.73915 -0.000304605 8.7698 0.244246 9.70339 0.714055C10.637 1.18386 11.4476 1.86587 12.0702 2.7054C12.6928 3.54494 13.1101 4.51868 13.2887 5.54856C13.4672 6.57845 13.4021 7.63586 13.0985 8.63604L20.0762 15.6147C20.3691 15.9076 20.6014 16.2554 20.7599 16.6381C20.9184 17.0209 21 17.4311 21 17.8454C21 18.2596 20.9184 18.6698 20.7599 19.0526C20.6014 19.4353 20.3691 19.7831 20.0762 20.076C19.7833 20.369 19.4355 20.6013 19.0529 20.7599C18.6702 20.9184 18.26 21 17.8458 21C17.4316 21 17.0214 20.9184 16.6387 20.7599C16.2561 20.6013 15.9083 20.369 15.6155 20.076L8.63779 13.0974C7.46926 13.4528 6.22574 13.4815 5.04204 13.1805C3.85834 12.8794 2.77961 12.2601 1.92278 11.3895C1.06594 10.519 0.463689 9.43056 0.181299 8.24211C-0.101092 7.05366 -0.0528474 5.81058 0.320803 4.6476L3.48679 7.80734L6.62378 6.76228L6.76318 6.62286Z" fill="#FDBB2C"/>
</svg>
