<svg width="512" height="512" viewBox="0 0 512 512" fill="none" xmlns="http://www.w3.org/2000/svg">
<g clip-path="url(#clip0_570_3833)">
<path d="M256 0C397.384 0 512 114.616 512 256C512 397.384 397.384 512 256 512C256 500.87 222.609 256 222.609 256L256 0Z" fill="#F0F0F0"/>
<path d="M256 512C114.616 512 0 397.384 0 256C0 114.616 114.616 0 256 0" fill="#496E2D"/>
<path d="M311.001 206.896L289.997 235.841L255.98 224.809L277.018 253.729L256.016 282.674L290.02 271.603L311.058 300.522L311.036 264.761L345.041 253.689L311.025 242.659L311.001 206.896Z" fill="#D80027"/>
<path d="M277.236 328.348C237.28 328.348 204.888 295.956 204.888 256C204.888 216.044 237.28 183.652 277.236 183.652C289.694 183.652 301.417 186.802 311.651 192.348C295.595 176.647 273.639 166.956 249.41 166.956C200.232 166.956 160.367 206.822 160.367 255.999C160.367 305.176 200.233 345.042 249.41 345.042C273.64 345.042 295.596 335.351 311.651 319.65C301.417 325.198 289.694 328.348 277.236 328.348Z" fill="#D80027"/>
</g>
<defs>
<clipPath id="clip0_570_3833">
<rect width="512" height="512" fill="white"/>
</clipPath>
</defs>
</svg>
