<svg width="512" height="512" viewBox="0 0 512 512" fill="none" xmlns="http://www.w3.org/2000/svg">
<g clip-path="url(#clip0_570_4396)">
<path d="M483.574 138.616C471.745 115.697 456.24 94.185 437.028 74.973C417.815 55.76 396.302 40.255 373.384 28.427L193.035 193.033L28.4277 373.382C40.2567 396.301 55.7617 417.814 74.9737 437.026C94.1857 456.238 115.699 471.743 138.617 483.572L318.966 318.965L483.574 138.616Z" fill="#FFDA44"/>
<path d="M74.9746 437.027C85.7136 447.766 97.1726 457.344 109.192 465.777L465.776 109.191C457.345 97.172 447.767 85.7129 437.028 74.9739C426.288 64.2349 414.83 54.658 402.811 46.226L46.2266 402.81C54.6576 414.827 64.2346 426.288 74.9746 437.027V437.027Z" fill="#D80027"/>
<path d="M74.9741 74.972C-5.79288 155.739 -21.2979 277.037 28.4281 373.382L373.384 28.427C277.038 -21.298 155.74 -5.79095 74.9741 74.972V74.972Z" fill="#338AF3"/>
<path d="M437.026 437.027C517.792 356.261 533.296 234.963 483.573 138.618L138.617 483.573C234.962 533.298 356.261 517.794 437.026 437.027V437.027Z" fill="#338AF3"/>
<path d="M136.426 77.905L150.24 120.422H194.944L158.778 146.698L172.592 189.214L136.426 162.937L100.258 189.214L114.074 146.698L77.9062 120.422H122.61L136.426 77.905Z" fill="#FFDA44"/>
</g>
<defs>
<clipPath id="clip0_570_4396">
<rect width="512" height="512" fill="white"/>
</clipPath>
</defs>
</svg>
