<svg width="512" height="512" viewBox="0 0 512 512" fill="none" xmlns="http://www.w3.org/2000/svg">
<g clip-path="url(#clip0_570_4593)">
<path d="M0 256C0 287.314 5.633 317.31 15.923 345.043L256 356.174L496.077 345.044C506.368 317.31 512 287.314 512 256C512 224.686 506.368 194.69 496.077 166.957L256 155.826L15.923 166.956C5.633 194.69 0 224.686 0 256H0Z" fill="#FFDA44"/>
<path d="M256.001 0C145.93 0 52.0948 69.472 15.9238 166.957H496.079C459.907 69.472 366.072 0 256.001 0V0Z" fill="#D80027"/>
<path d="M496.078 345.043H15.9238C52.0948 442.527 145.93 512 256.001 512C366.072 512 459.907 442.527 496.078 345.043Z" fill="#496E2D"/>
<path d="M255.997 166.957L278.097 234.977H349.625L291.762 277.02L313.862 345.043L255.997 303.003L198.132 345.043L220.236 277.02L162.373 234.977H233.897L255.997 166.957Z" fill="black"/>
</g>
<defs>
<clipPath id="clip0_570_4593">
<rect width="512" height="512" fill="white"/>
</clipPath>
</defs>
</svg>
