<svg width="512" height="512" viewBox="0 0 512 512" fill="none" xmlns="http://www.w3.org/2000/svg">
<g clip-path="url(#clip0_570_5941)">
<path d="M499.912 178.088C507.754 202.656 512.001 228.829 512 255.998C512.001 283.168 507.753 309.343 499.911 333.911L256 345.043L12.089 333.913C4.24799 309.344 -0.000976562 283.168 -0.000976562 256C2.34375e-05 228.83 4.24699 202.656 12.089 178.087L256 166.957L499.912 178.088Z" fill="#F0F0F0"/>
<path d="M12.0891 178.088L256 166.958L499.912 178.088C502.236 185.372 504.237 192.799 505.914 200.349H6.09006C7.76506 192.798 9.76505 185.37 12.0891 178.088Z" fill="#D80027"/>
<path d="M505.91 311.651C504.235 319.201 502.234 326.627 499.91 333.911L499.886 333.912L256 345.042L12.0892 333.912C9.76517 326.628 7.76417 319.201 6.08817 311.651H505.91Z" fill="#D80027"/>
<path d="M256 511.999C141.784 511.999 45.0541 437.196 12.0891 333.912H499.91C466.945 437.195 370.213 511.999 256 511.999V511.999Z" fill="#6DA544"/>
<path d="M256.001 0.000976573C370.215 0.00197657 466.945 74.805 499.912 178.088L12.0911 178.089C45.0541 74.804 141.785 -2.34275e-05 256.001 0.000976573V0.000976573Z" fill="#338AF3"/>
<path d="M395.014 105.74C395.014 81.7628 378.163 61.7328 355.66 56.8188C359.118 56.0628 362.707 55.6538 366.393 55.6538C394.055 55.6538 416.48 78.0778 416.48 105.741C416.48 133.404 394.057 155.828 366.393 155.828C362.707 155.828 359.119 155.418 355.66 154.663C378.162 149.747 395.014 129.717 395.014 105.74V105.74Z" fill="#F0F0F0"/>
<path d="M326.056 128.507L322.666 138.942H311.694L320.57 145.392L317.18 155.827L326.056 149.378L334.934 155.827L331.543 145.392L340.42 138.942H329.448L326.056 128.507Z" fill="#F0F0F0"/>
<path d="M291.036 128.507L287.645 138.942H276.673L285.55 145.392L282.159 155.827L291.036 149.378L299.913 155.827L296.522 145.392L305.398 138.942H294.427L291.036 128.507Z" fill="#F0F0F0"/>
<path d="M256.015 128.507L252.625 138.942H241.652L250.529 145.392L247.139 155.827L256.015 149.378L264.893 155.827L261.501 145.392L270.379 138.942H259.406L256.015 128.507Z" fill="#F0F0F0"/>
<path d="M220.995 128.507L217.604 138.942H206.633L215.509 145.392L212.118 155.827L220.995 149.378L229.873 155.827L226.481 145.392L235.359 138.942H224.387L220.995 128.507Z" fill="#F0F0F0"/>
<path d="M185.974 128.507L182.583 138.942H171.611L180.487 145.392L177.096 155.827L185.974 149.378L194.851 155.827L191.46 145.392L200.336 138.942H189.365L185.974 128.507Z" fill="#F0F0F0"/>
<path d="M291.036 92.0801L287.645 102.514H276.673L285.55 108.965L282.159 119.399L291.036 112.95L299.913 119.399L296.522 108.965L305.398 102.514H294.427L291.036 92.0801Z" fill="#F0F0F0"/>
<path d="M256.015 92.0801L252.625 102.514H241.652L250.529 108.965L247.139 119.399L256.015 112.95L264.893 119.399L261.501 108.965L270.379 102.514H259.406L256.015 92.0801Z" fill="#F0F0F0"/>
<path d="M220.995 92.0801L217.604 102.514H206.633L215.509 108.965L212.118 119.399L220.995 112.95L229.873 119.399L226.481 108.965L235.359 102.514H224.387L220.995 92.0801Z" fill="#F0F0F0"/>
<path d="M185.974 92.0801L182.583 102.514H171.611L180.487 108.965L177.096 119.399L185.974 112.95L194.851 119.399L191.46 108.965L200.336 102.514H189.365L185.974 92.0801Z" fill="#F0F0F0"/>
<path d="M256.015 55.6519L252.625 66.0879H241.652L250.529 72.5369L247.139 82.9729L256.015 76.5239L264.893 82.9729L261.501 72.5369L270.379 66.0879H259.406L256.015 55.6519Z" fill="#F0F0F0"/>
<path d="M220.995 55.6519L217.604 66.0879H206.633L215.509 72.5369L212.118 82.9729L220.995 76.5239L229.873 82.9729L226.481 72.5369L235.359 66.0879H224.387L220.995 55.6519Z" fill="#F0F0F0"/>
<path d="M185.974 55.6519L182.583 66.0879H171.611L180.487 72.5369L177.096 82.9729L185.974 76.5239L194.851 82.9729L191.46 72.5369L200.336 66.0879H189.365L185.974 55.6519Z" fill="#F0F0F0"/>
</g>
<defs>
<clipPath id="clip0_570_5941">
<rect width="512" height="512" fill="white" transform="matrix(-1 0 0 1 512 0)"/>
</clipPath>
</defs>
</svg>
