<svg width="19" height="19" viewBox="0 0 19 19" fill="none" xmlns="http://www.w3.org/2000/svg">
<g clip-path="url(#clip0_698_38552)">
<path d="M9.26 18.52C14.3742 18.52 18.52 14.3742 18.52 9.26C18.52 4.14584 14.3742 0 9.26 0C4.14584 0 0 4.14584 0 9.26C0 14.3742 4.14584 18.52 9.26 18.52Z" fill="#6DA544"/>
<path d="M9.25991 3.62354L16.9095 9.26005L9.25991 14.8966L1.61035 9.26005L9.25991 3.62354Z" fill="#FFDA44"/>
<path d="M9.25991 12.4808C11.0387 12.4808 12.4808 11.0387 12.4808 9.25991C12.4808 7.48109 11.0387 6.03906 9.25991 6.03906C7.48109 6.03906 6.03906 7.48109 6.03906 9.25991C6.03906 11.0387 7.48109 12.4808 9.25991 12.4808Z" fill="#F0F0F0"/>
<path d="M7.64943 9.05859C7.08935 9.05859 6.54883 9.14378 6.04004 9.30185C6.06257 11.0612 7.49513 12.4808 9.25988 12.4808C10.3511 12.4808 11.3149 11.9376 11.8975 11.1074C10.9007 9.85958 9.36698 9.05859 7.64943 9.05859V9.05859Z" fill="#0052B4"/>
<path d="M12.421 9.87701C12.4598 9.67719 12.4807 9.47105 12.4807 9.25991C12.4807 7.48105 11.0387 6.03906 9.25985 6.03906C7.93256 6.03906 6.79314 6.84211 6.30005 7.98869C6.73592 7.89837 7.1872 7.8508 7.64944 7.8508C9.52014 7.85077 11.2125 8.62839 12.421 9.87701V9.87701Z" fill="#0052B4"/>
</g>
<defs>
<clipPath id="clip0_698_38552">
<rect width="18.52" height="18.52" fill="white"/>
</clipPath>
</defs>
</svg>
