<svg width="19" height="19" viewBox="0 0 19 19" fill="none" xmlns="http://www.w3.org/2000/svg">
<g clip-path="url(#clip0_698_38554)">
<path d="M9.26 18.52C14.3742 18.52 18.52 14.3742 18.52 9.26C18.52 4.14584 14.3742 0 9.26 0C4.14584 0 0 4.14584 0 9.26C0 14.3742 4.14584 18.52 9.26 18.52Z" fill="#F0F0F0"/>
<path d="M18.5201 9.26021C18.5201 5.27873 16.0072 1.88454 12.481 0.576172V17.9443C16.0072 16.6359 18.5201 13.2417 18.5201 9.26021V9.26021Z" fill="#D80027"/>
<path d="M0 9.26021C0 13.2417 2.51297 16.6359 6.03915 17.9442V0.576172C2.51297 1.88454 0 5.27873 0 9.26021Z" fill="#0052B4"/>
</g>
<defs>
<clipPath id="clip0_698_38554">
<rect width="18.52" height="18.52" fill="white"/>
</clipPath>
</defs>
</svg>
