<svg width="19" height="19" viewBox="0 0 19 19" fill="none" xmlns="http://www.w3.org/2000/svg">
<g clip-path="url(#clip0_698_38535)">
<path d="M0.575928 12.481C1.8843 16.0071 5.27849 18.5201 9.25996 18.5201C13.2414 18.5201 16.6356 16.0071 17.944 12.481L9.25996 11.6758L0.575928 12.481Z" fill="#FFDA44"/>
<path d="M9.25996 0C5.27849 0 1.8843 2.51293 0.575928 6.03915L9.25996 6.84433L17.944 6.03911C16.6356 2.51293 13.2414 0 9.25996 0Z" fill="black"/>
<path d="M0.575965 6.03906C0.203756 7.04222 0 8.12723 0 9.25991C0 10.3926 0.203756 11.4776 0.575965 12.4808H17.9441C18.3163 11.4776 18.52 10.3926 18.52 9.25991C18.52 8.12723 18.3163 7.04222 17.944 6.03906H0.575965Z" fill="#D80027"/>
</g>
<defs>
<clipPath id="clip0_698_38535">
<rect width="18.52" height="18.52" fill="white"/>
</clipPath>
</defs>
</svg>
