<svg width="22" height="22" viewBox="0 0 22 22" fill="none" xmlns="http://www.w3.org/2000/svg">
<path d="M16.1627 9.42764H13.4689V4.71357C13.4689 4.35636 13.327 4.01378 13.0745 3.76119C12.8219 3.5086 12.4793 3.3667 12.1221 3.3667H2.69395C2.58475 3.36672 2.4772 3.39329 2.38056 3.44412C2.28392 3.49495 2.20109 3.56852 2.1392 3.65848C2.07732 3.74845 2.03824 3.85211 2.02534 3.96054C2.01243 4.06897 2.02609 4.17891 2.06512 4.28089C2.99615 6.70863 2.80254 11.3276 2.0466 13.9557C2.02957 14.0162 2.02079 14.0788 2.02051 14.1417V16.8355C2.02051 17.1927 2.16241 17.5352 2.415 17.7878C2.66759 18.0404 3.01017 18.1823 3.36738 18.1823H5.56531C5.77455 18.1824 5.98091 18.1337 6.16804 18.0401L7.23039 17.5089H8.59578L9.65813 18.0401C9.84526 18.1337 10.0516 18.1824 10.2609 18.1823H12.6364C12.8456 18.1824 13.052 18.1337 13.2391 18.0401L14.3015 17.5089H15.6669L16.7292 18.0401C16.9164 18.1337 17.1227 18.1824 17.332 18.1823H19.5299C19.8871 18.1823 20.2297 18.0404 20.4823 17.7878C20.7349 17.5352 20.8768 17.1927 20.8768 16.8355V14.1417C20.8754 12.8919 20.3783 11.6936 19.4946 10.8098C18.6108 9.92606 17.4125 9.42897 16.1627 9.42764ZM3.60814 4.71357H12.1221V6.73389H9.42832C9.24971 6.73389 9.07842 6.80484 8.95213 6.93113C8.82583 7.05743 8.75488 7.22872 8.75488 7.40732C8.75488 7.58593 8.82583 7.75722 8.95213 7.88352C9.07842 8.00981 9.24971 8.08076 9.42832 8.08076H12.1221V9.42764H9.42832C9.24971 9.42764 9.07842 9.49859 8.95213 9.62488C8.82583 9.75118 8.75488 9.92247 8.75488 10.1011C8.75488 10.2797 8.82583 10.451 8.95213 10.5773C9.07842 10.7036 9.24971 10.7745 9.42832 10.7745H16.1627C16.9386 10.7755 17.6905 11.0439 18.2916 11.5346C18.8927 12.0253 19.3063 12.7082 19.4625 13.4683H3.55679C4.125 10.8722 4.24369 7.22465 3.60814 4.71357ZM19.5299 16.8355H17.332L16.2696 16.3043C16.0825 16.2107 15.8761 16.162 15.6669 16.162H14.3015C14.0922 16.162 13.8859 16.2107 13.6988 16.3043L12.6364 16.8355H10.2609L9.19851 16.3043C9.01138 16.2107 8.80501 16.162 8.59578 16.162H7.23039C7.02116 16.162 6.81479 16.2107 6.62766 16.3043L5.56531 16.8355H3.36738V14.8151H19.5299V16.8355Z" fill="#FDBB2C"/>
</svg>
