<svg width="13" height="13" viewBox="0 0 13 13" fill="none" xmlns="http://www.w3.org/2000/svg">
<path d="M0.631104 6.31147C0.631104 7.0574 0.778024 7.79602 1.06348 8.48516C1.34893 9.17431 1.76733 9.80048 2.29477 10.3279C2.82222 10.8554 3.44839 11.2738 4.13754 11.5592C4.82668 11.8447 5.5653 11.9916 6.31123 11.9916C7.05715 11.9916 7.79577 11.8447 8.48492 11.5592C9.17406 11.2738 9.80024 10.8554 10.3277 10.3279C10.8551 9.80048 11.2735 9.17431 11.559 8.48516C11.8444 7.79602 11.9914 7.0574 11.9914 6.31147C11.9914 4.80501 11.3929 3.36025 10.3277 2.29502C9.26245 1.22979 7.81769 0.631348 6.31123 0.631348C4.80477 0.631348 3.36 1.22979 2.29477 2.29502C1.22954 3.36025 0.631104 4.80501 0.631104 6.31147Z" stroke="#DD2E44" stroke-width="1.26225" stroke-linecap="round" stroke-linejoin="round"/>
<path d="M6.31152 3.15576V6.31139L8.2049 8.20476" stroke="#DD2E44" stroke-width="1.26225" stroke-linecap="round" stroke-linejoin="round"/>
</svg>
