<svg width="12" height="12" viewBox="0 0 12 12" fill="none" xmlns="http://www.w3.org/2000/svg">
<path d="M5.68013 11.3603C4.35476 11.3603 3.18192 10.958 2.1616 10.1535C1.14128 9.34907 0.478603 8.32075 0.173559 7.0686C0.131484 6.91082 0.163041 6.76629 0.268228 6.63502C0.373416 6.50374 0.515419 6.42738 0.694237 6.40592C0.862537 6.38488 1.01506 6.41644 1.1518 6.50059C1.28855 6.58474 1.38322 6.71096 1.43581 6.87926C1.68826 7.82595 2.20894 8.59908 2.99784 9.19865C3.78675 9.79822 4.68084 10.098 5.68013 10.098C6.91082 10.098 7.95491 9.66947 8.8124 8.8124C9.66989 7.95533 10.0984 6.91124 10.098 5.68013C10.0976 4.44901 9.66905 3.40513 8.8124 2.54848C7.95575 1.69184 6.91166 1.26309 5.68013 1.26225C4.95433 1.26225 4.27587 1.43055 3.64475 1.76715C3.01362 2.10375 2.48243 2.56658 2.05116 3.15563H3.15563C3.33444 3.15563 3.48444 3.21621 3.60562 3.33739C3.72679 3.45857 3.78717 3.60835 3.78675 3.78675C3.78633 3.96515 3.72574 4.11515 3.60499 4.23674C3.48423 4.35834 3.33444 4.41872 3.15563 4.41788H0.631125C0.452306 4.41788 0.302519 4.35729 0.181764 4.23611C0.0610088 4.11494 0.00042075 3.96515 0 3.78675V1.26225C0 1.08343 0.0605881 0.933644 0.181764 0.812889C0.30294 0.692134 0.452727 0.631546 0.631125 0.631125C0.809523 0.630704 0.95952 0.691292 1.08112 0.812889C1.20271 0.934486 1.26309 1.08427 1.26225 1.26225V2.11427C1.79871 1.44107 2.4536 0.920391 3.22694 0.552234C4.00028 0.184078 4.81801 0 5.68013 0C6.46903 0 7.20808 0.149997 7.89727 0.449992C8.58646 0.749987 9.18603 1.15475 9.69597 1.66428C10.2059 2.17381 10.6109 2.77337 10.9109 3.46298C11.2109 4.15259 11.3607 4.89164 11.3603 5.68013C11.3598 6.46861 11.21 7.20766 10.9109 7.89727C10.6117 8.58688 10.2068 9.18645 9.69597 9.69597C9.18518 10.2055 8.58561 10.6105 7.89727 10.9109C7.20892 11.2113 6.46987 11.3611 5.68013 11.3603ZM6.31125 5.42768L7.88906 7.00549C8.00477 7.12119 8.06262 7.26846 8.06262 7.44728C8.06262 7.62609 8.00477 7.77336 7.88906 7.88906C7.77336 8.00477 7.62609 8.06262 7.44728 8.06262C7.26846 8.06262 7.12119 8.00477 7.00549 7.88906L5.23834 6.12191C5.17523 6.0588 5.12789 5.9879 5.09633 5.90922C5.06478 5.83054 5.049 5.74892 5.049 5.66435V3.15563C5.049 2.97681 5.10959 2.82702 5.23076 2.70626C5.35194 2.58551 5.50173 2.52492 5.68013 2.5245C5.85852 2.52408 6.00852 2.58467 6.13012 2.70626C6.25171 2.82786 6.31209 2.97765 6.31125 3.15563V5.42768Z" fill="white" fill-opacity="0.3"/>
</svg>
