<svg width="13" height="11" viewBox="0 0 13 11" fill="none" xmlns="http://www.w3.org/2000/svg">
<path d="M8.57068 8.0784L6.31125 6.62681L4.05182 8.0784L4.73344 5.47817L2.65704 3.78675L5.33932 3.62266L6.31125 1.13603L7.28318 3.62266L9.96546 3.78675L7.88906 5.47817M11.3603 5.049C11.3603 4.71423 11.4932 4.39317 11.73 4.15645C11.9667 3.91974 12.2877 3.78675 12.6225 3.78675V1.26225C12.6225 0.927481 12.4895 0.606422 12.2528 0.369704C12.0161 0.132987 11.695 0 11.3603 0H1.26225C0.927481 0 0.606422 0.132987 0.369704 0.369704C0.132987 0.606422 0 0.927481 0 1.26225V3.78675C0.33477 3.78675 0.655828 3.91974 0.892546 4.15645C1.12926 4.39317 1.26225 4.71423 1.26225 5.049C1.26225 5.38377 1.12926 5.70483 0.892546 5.94155C0.655828 6.17826 0.33477 6.31125 0 6.31125V8.83575C0 9.17052 0.132987 9.49158 0.369704 9.7283C0.606422 9.96501 0.927481 10.098 1.26225 10.098H11.3603C11.695 10.098 12.0161 9.96501 12.2528 9.7283C12.4895 9.49158 12.6225 9.17052 12.6225 8.83575V6.31125C12.2877 6.31125 11.9667 6.17826 11.73 5.94155C11.4932 5.70483 11.3603 5.38377 11.3603 5.049Z" fill="black"/>
</svg>
