<svg width="26" height="24" viewBox="0 0 26 24" fill="none" xmlns="http://www.w3.org/2000/svg">
<path d="M17.415 16.77C17.0495 16.77 16.7433 16.6462 16.4965 16.3985C16.2497 16.1508 16.1259 15.8446 16.125 15.48V10.32C16.125 9.9545 16.2488 9.64834 16.4965 9.40152C16.7442 9.1547 17.0504 9.03086 17.415 9.03H20.64C21.0055 9.03 21.3121 9.15384 21.5598 9.40152C21.8074 9.6492 21.9309 9.95536 21.93 10.32V15.48C21.93 15.8455 21.8062 16.1521 21.5585 16.3998C21.3108 16.6474 21.0046 16.7709 20.64 16.77H17.415ZM18.06 14.835H19.995V10.965H18.06V14.835ZM3.87 16.77V13.545C3.87 13.1795 3.99384 12.8733 4.24152 12.6265C4.4892 12.3797 4.79536 12.2559 5.16 12.255H7.74V10.965H3.87V9.03H8.385C8.7505 9.03 9.05709 9.15384 9.30477 9.40152C9.55245 9.6492 9.67586 9.95536 9.675 10.32V12.255C9.675 12.6205 9.55116 12.9271 9.30348 13.1748C9.0558 13.4225 8.74964 13.5459 8.385 13.545H5.805V14.835H9.675V16.77H3.87ZM11.9325 11.61V9.675H13.8675V11.61H11.9325ZM11.9325 16.125V14.19H13.8675V16.125H11.9325ZM2.58 23.22C1.8705 23.22 1.26334 22.9676 0.75852 22.4628C0.2537 21.9579 0.00086 21.3504 0 20.64V5.16C0 4.4505 0.25284 3.84334 0.75852 3.33852C1.2642 2.8337 1.87136 2.58086 2.58 2.58H6.45V0H9.03V2.58H16.77V0H19.35V2.58H23.22C23.9295 2.58 24.5371 2.83284 25.0428 3.33852C25.5484 3.8442 25.8009 4.45136 25.8 5.16V20.64C25.8 21.3495 25.5476 21.9571 25.0428 22.4628C24.5379 22.9684 23.9304 23.2209 23.22 23.22H2.58ZM2.58 20.64H11.9325V18.705H13.8675V20.64H23.22V5.16H13.8675V7.095H11.9325V5.16H2.58V20.64Z" fill="#FDBB2C"/>
</svg>
