<svg width="13" height="12" viewBox="0 0 13 12" fill="none" xmlns="http://www.w3.org/2000/svg">
<path d="M1.26225 10.098V1.26225H5.68013V5.68012H10.098V6.31125C10.5398 6.31125 10.9626 6.3933 11.3603 6.53214V3.78675L7.5735 0H1.26225C0.561701 0 0 0.561701 0 1.26225V10.098C0 10.4328 0.132987 10.7538 0.369704 10.9905C0.606422 11.2273 0.927481 11.3602 1.26225 11.3602H6.53214C6.3933 10.9626 6.31125 10.5398 6.31125 10.098H1.26225ZM6.94238 0.946687L10.4136 4.41787H6.94238V0.946687ZM12.3069 8.99353L9.30909 11.9914L7.5735 10.098L8.30561 9.36589L9.30909 10.3694L11.5748 8.10364L12.3069 8.99353Z" fill="white" fill-opacity="0.3"/>
</svg>
