<svg width="25" height="18" viewBox="0 0 25 18" fill="none" xmlns="http://www.w3.org/2000/svg">
<path d="M3.54348 0.354775C3.77037 0.12773 4.07815 0.000113535 4.39913 7.5719e-08C4.72011 -0.000113384 5.02798 0.127286 5.25503 0.35417C5.48207 0.581055 5.60969 0.88884 5.6098 1.20982C5.60992 1.53079 5.48252 1.83867 5.25563 2.06571C3.44054 3.88103 2.42086 6.34299 2.42086 8.91008C2.42086 11.4772 3.44054 13.9391 5.25563 15.7544C5.48268 15.9813 5.6103 16.2891 5.61041 16.6101C5.61052 16.9311 5.48312 17.2389 5.25624 17.466C5.02935 17.693 4.72157 17.8207 4.40059 17.8208C4.07962 17.8209 3.77174 17.6935 3.54469 17.4666C-1.18156 12.7415 -1.18156 5.07982 3.54469 0.354775M18.9456 0.354775C19.1725 0.127935 19.4802 0.000503773 19.801 0.000503773C20.1219 0.000503773 20.4296 0.127935 20.6565 0.354775C25.3828 5.07982 25.3828 12.7415 20.6565 17.4666C20.4295 17.6935 20.1216 17.8209 19.8006 17.8208C19.4796 17.8207 19.1719 17.693 18.945 17.466C18.7181 17.2389 18.5907 16.9311 18.5908 16.6101C18.5909 16.2891 18.7185 15.9813 18.9456 15.7544C20.7607 13.9391 21.7803 11.4772 21.7803 8.91008C21.7803 6.34299 20.7607 3.88103 18.9456 2.06571C18.7187 1.83881 18.5913 1.53109 18.5913 1.21025C18.5913 0.889397 18.7187 0.581683 18.9456 0.354775ZM6.96657 3.77665C7.19463 3.55608 7.50019 3.4339 7.81745 3.43643C8.13472 3.43896 8.43829 3.566 8.6628 3.79018C8.8873 4.01437 9.01477 4.31777 9.01775 4.63503C9.02073 4.95228 8.89898 5.25802 8.67872 5.48638C8.22926 5.93582 7.87273 6.46939 7.62948 7.05662C7.38623 7.64386 7.26103 8.27325 7.26103 8.90887C7.26103 9.54449 7.38623 10.1739 7.62948 10.7611C7.87273 11.3483 8.22926 11.8819 8.67872 12.3314C8.89914 12.5596 9.0211 12.8652 9.01834 13.1825C9.01558 13.4997 8.88833 13.8032 8.66398 14.0276C8.43964 14.2519 8.13616 14.3792 7.8189 14.3819C7.50164 14.3847 7.19599 14.2627 6.96778 14.0423C5.60637 12.6808 4.84155 10.8343 4.84155 8.90887C4.84155 6.98348 5.60637 5.13694 6.96778 3.77544M15.5237 3.77544C15.7506 3.5486 16.0583 3.42117 16.3792 3.42117C16.7 3.42117 17.0077 3.5486 17.2346 3.77544C18.596 5.13694 19.3609 6.98348 19.3609 8.90887C19.3609 10.8343 18.596 12.6808 17.2346 14.0423C17.0064 14.2627 16.7008 14.3847 16.3835 14.3819C16.0663 14.3792 15.7628 14.2519 15.5384 14.0276C15.3141 13.8032 15.1868 13.4997 15.1841 13.1825C15.1813 12.8652 15.3033 12.5596 15.5237 12.3314C15.9732 11.8819 16.3297 11.3483 16.5729 10.7611C16.8162 10.1739 16.9414 9.54449 16.9414 8.90887C16.9414 8.27325 16.8162 7.64386 16.5729 7.05662C16.3297 6.46939 15.9732 5.93582 15.5237 5.48638C15.2969 5.25948 15.1694 4.95176 15.1694 4.63092C15.1694 4.31007 15.2969 4.00235 15.5237 3.77544ZM12.0982 7.09568C12.5796 7.09568 13.0412 7.28691 13.3816 7.62729C13.722 7.96766 13.9132 8.42932 13.9132 8.91068C13.9132 9.39205 13.722 9.8537 13.3816 10.1941C13.0412 10.5345 12.5796 10.7257 12.0982 10.7257C11.6168 10.7257 11.1552 10.5345 10.8148 10.1941C10.4744 9.8537 10.2832 9.39205 10.2832 8.91068C10.2832 8.42932 10.4744 7.96766 10.8148 7.62729C11.1552 7.28691 11.6168 7.09568 12.0982 7.09568Z" fill="white"/>
</svg>
