<svg width="17" height="22" viewBox="0 0 17 22" fill="none" xmlns="http://www.w3.org/2000/svg">
<path d="M11.2819 18.3351L8.25 16.5225L5.21813 18.3351L6.0225 14.8357L3.35157 12.4888L6.86813 12.185L8.25 8.9056L9.63187 12.185L13.1484 12.4888L10.4775 14.8357M16.5 0H1.22039e-05V2.09544L5.01188 5.90913C3.2633 6.66724 1.8261 8.01565 0.943332 9.72629C0.0605617 11.4369 -0.213599 13.4048 0.167218 15.2972C0.548034 17.1896 1.56046 18.8902 3.03326 20.1116C4.50606 21.3329 6.34886 22 8.25 22C10.1511 22 11.9939 21.3329 13.4667 20.1116C14.9395 18.8902 15.952 17.1896 16.3328 15.2972C16.7136 13.4048 16.4394 11.4369 15.5567 9.72629C14.6739 8.01565 13.2367 6.66724 11.4881 5.90913L16.5 2.09544M14.4375 13.6203C14.438 14.8108 14.1058 15.977 13.4796 16.9832C12.8533 17.9894 11.9586 18.7942 10.8997 19.304C9.84081 19.8138 8.66119 20.0077 7.49809 19.863C6.335 19.7183 5.23624 19.2411 4.32967 18.4868C3.4231 17.7325 2.74598 16.7322 2.3771 15.6022C2.00822 14.4723 1.96274 13.2591 2.24596 12.1039C2.52917 10.9487 3.12944 9.89897 3.97691 9.07681C4.82439 8.25465 5.88423 7.69388 7.03313 7.45975C7.8361 7.29323 8.6639 7.29323 9.46687 7.45975C10.8683 7.74534 12.1291 8.51503 13.0352 9.63806C13.9413 10.7611 14.4368 12.1682 14.4375 13.6203ZM8.89969 5.23859H7.60031L3.47532 2.09544H13.1072L8.89969 5.23859Z" fill="white"/>
</svg>
