<svg preserveAspectRatio="none" width="100%" height="100%" overflow="visible" style="display: block;" viewBox="0 0 43.35 43.35" fill="none" xmlns="http://www.w3.org/2000/svg">
<g id="Group 55048" filter="url(#filter0_d_0_7)">
<circle id="Ellipse 432" cx="21.675" cy="21.675" r="14.875" fill="var(--fill-0, #1C253F)"/>
<g id="tabler:crown-filled">
<path id="Vector" d="M26.813 26.8154H16.8232C16.4664 26.8154 16.181 26.6013 16.1096 26.2445L14.6825 19.1089C14.6825 18.8235 14.7538 18.5381 15.0393 18.324C15.3247 18.1813 15.6101 18.1813 15.8242 18.324L18.7498 20.6787L21.1759 17.0396C21.4613 16.6114 22.1035 16.6114 22.3889 17.0396L24.815 20.6787L27.7406 18.324C27.9547 18.1099 28.3115 18.1099 28.5256 18.324C28.811 18.4667 28.8823 18.7521 28.8823 19.1089L27.4552 26.2445C27.4552 26.6013 27.0984 26.8154 26.7417 26.8154H26.813Z" fill="var(--fill-0, #FDBB2C)"/>
</g>
</g>
<defs>
<filter id="filter0_d_0_7" x="-9.53733e-08" y="1.90732e-07" width="43.35" height="43.35" filterUnits="userSpaceOnUse" color-interpolation-filters="sRGB">
<feFlood flood-opacity="0" result="BackgroundImageFix"/>
<feColorMatrix in="SourceAlpha" type="matrix" values="0 0 0 0 0 0 0 0 0 0 0 0 0 0 0 0 0 0 127 0" result="hardAlpha"/>
<feOffset/>
<feGaussianBlur stdDeviation="3.4"/>
<feComposite in2="hardAlpha" operator="out"/>
<feColorMatrix type="matrix" values="0 0 0 0 0.992157 0 0 0 0 0.733333 0 0 0 0 0.172549 0 0 0 0.4 0"/>
<feBlend mode="normal" in2="BackgroundImageFix" result="effect1_dropShadow_0_7"/>
<feBlend mode="normal" in="SourceGraphic" in2="effect1_dropShadow_0_7" result="shape"/>
</filter>
</defs>
</svg>
