<svg preserveAspectRatio="none" width="100%" height="100%" overflow="visible" style="display: block;" viewBox="0 0 12.988 8.85547" fill="none" xmlns="http://www.w3.org/2000/svg">
<path id="Vector" d="M6.49401 2.65664C6.96373 2.65664 7.41422 2.84324 7.74636 3.17538C8.07851 3.50753 8.2651 3.95801 8.2651 4.42773C8.2651 4.89746 8.07851 5.34794 7.74636 5.68009C7.41422 6.01223 6.96373 6.19883 6.49401 6.19883C6.02429 6.19883 5.5738 6.01223 5.24166 5.68009C4.90951 5.34794 4.72292 4.89746 4.72292 4.42773C4.72292 3.95801 4.90951 3.50753 5.24166 3.17538C5.5738 2.84324 6.02429 2.65664 6.49401 2.65664ZM6.49401 0C9.44583 0 11.9667 1.83603 12.988 4.42773C11.9667 7.01943 9.44583 8.85547 6.49401 8.85547C3.54219 8.85547 1.02133 7.01943 0 4.42773C1.02133 1.83603 3.54219 0 6.49401 0ZM1.28699 4.42773C1.76416 5.40202 2.5051 6.22288 3.42558 6.79702C4.34606 7.37115 5.40915 7.67552 6.49401 7.67552C7.57887 7.67552 8.64196 7.37115 9.56244 6.79702C10.4829 6.22288 11.2239 5.40202 11.701 4.42773C11.2239 3.45345 10.4829 2.63258 9.56244 2.05845C8.64196 1.48432 7.57887 1.17995 6.49401 1.17995C5.40915 1.17995 4.34606 1.48432 3.42558 2.05845C2.5051 2.63258 1.76416 3.45345 1.28699 4.42773Z" fill="var(--fill-0, black)"/>
</svg>
