<svg preserveAspectRatio="none" width="100%" height="100%" overflow="visible" style="display: block;" viewBox="0 0 15.482 17.0001" fill="none" xmlns="http://www.w3.org/2000/svg">
<g id="Group">
<path id="Vector" fill-rule="evenodd" clip-rule="evenodd" d="M0.251204 0.275935C0.412258 0.0993072 0.630575 9.76563e-05 0.858198 9.76563e-05C1.08582 9.76563e-05 1.30414 0.0993072 1.46519 0.275935L15.2085 15.3669C15.2928 15.4532 15.3605 15.5573 15.4075 15.673C15.4544 15.7887 15.4797 15.9136 15.4817 16.0403C15.4837 16.1669 15.4625 16.2927 15.4193 16.4102C15.3761 16.5276 15.3118 16.6343 15.2303 16.7238C15.1487 16.8134 15.0515 16.884 14.9446 16.9315C14.8376 16.9789 14.7231 17.0022 14.6077 17C14.4924 16.9977 14.3787 16.97 14.2733 16.9184C14.1679 16.8669 14.0731 16.7926 13.9945 16.6999L0.251204 1.60897C0.0903498 1.43212 0 1.1924 0 0.942451C0 0.692507 0.0903498 0.452782 0.251204 0.275935Z" fill="var(--fill-0, #939393)"/>
<path id="Vector_2" fill-rule="evenodd" clip-rule="evenodd" d="M15.2091 0.275935C15.3699 0.452782 15.4603 0.692507 15.4603 0.942451C15.4603 1.1924 15.3699 1.43212 15.2091 1.60897L1.46582 16.6999C1.30299 16.8665 1.08763 16.9572 0.865098 16.9529C0.64257 16.9486 0.430254 16.8496 0.272878 16.6768C0.115503 16.504 0.0253567 16.2708 0.0214304 16.0265C0.0175042 15.7821 0.100105 15.5457 0.25183 15.3669L13.9951 0.275935C14.1561 0.0993072 14.3745 9.76563e-05 14.6021 9.76563e-05C14.8297 9.76563e-05 15.048 0.0993072 15.2091 0.275935Z" fill="var(--fill-0, #939393)"/>
</g>
</svg>
