<svg width="17" height="16" viewBox="0 0 17 16" fill="none" xmlns="http://www.w3.org/2000/svg">
<path d="M0.839844 7.62181C0.839844 8.51244 1.037 9.39435 1.42006 10.2172C1.80311 11.04 2.36457 11.7877 3.07236 12.4174C3.78016 13.0472 4.62043 13.5468 5.54521 13.8876C6.46999 14.2284 7.46116 14.4039 8.46214 14.4039C9.46311 14.4039 10.4543 14.2284 11.3791 13.8876C12.3038 13.5468 13.1441 13.0472 13.8519 12.4174C14.5597 11.7877 15.1212 11.04 15.5042 10.2172C15.8873 9.39435 16.0844 8.51244 16.0844 7.62181C16.0844 5.82309 15.2814 4.09805 13.8519 2.82617C12.4225 1.55429 10.4837 0.839752 8.46214 0.839752C6.44058 0.839752 4.50182 1.55429 3.07236 2.82617C1.6429 4.09805 0.839844 5.82309 0.839844 7.62181Z" stroke="#DD2E44" stroke-width="1.6795" stroke-linecap="round" stroke-linejoin="round"/>
<path d="M8.46216 3.85391V7.62172L11.0029 9.88241" stroke="#DD2E44" stroke-width="1.6795" stroke-linecap="round" stroke-linejoin="round"/>
</svg>
