<svg preserveAspectRatio="none" width="100%" height="100%" overflow="visible" style="display: block;" viewBox="0 0 16.9978 17" fill="none" xmlns="http://www.w3.org/2000/svg">
<g id="Group">
<path id="Vector" fill-rule="evenodd" clip-rule="evenodd" d="M0.27585 0.275877C0.452674 0.0992492 0.692367 3.96729e-05 0.942279 3.96729e-05C1.19219 3.96729e-05 1.43188 0.0992492 1.60871 0.275877L16.6977 15.3668C16.7903 15.4532 16.8646 15.5573 16.9162 15.673C16.9677 15.7887 16.9954 15.9136 16.9977 16.0402C16.9999 16.1669 16.9766 16.2927 16.9292 16.4101C16.8818 16.5275 16.8112 16.6342 16.7216 16.7238C16.6321 16.8134 16.5254 16.884 16.408 16.9314C16.2905 16.9788 16.1647 17.0021 16.0381 16.9999C15.9115 16.9977 15.7866 16.9699 15.6709 16.9184C15.5553 16.8668 15.4511 16.7925 15.3648 16.6998L0.27585 1.60891C0.0992454 1.43206 4.88281e-05 1.19234 4.88281e-05 0.942393C4.88281e-05 0.692449 0.0992454 0.452724 0.27585 0.275877Z" fill="var(--fill-0, #939393)"/>
<path id="Vector_2" fill-rule="evenodd" clip-rule="evenodd" d="M16.6978 0.27598C16.8744 0.452828 16.9736 0.692553 16.9736 0.942497C16.9736 1.19244 16.8744 1.43217 16.6978 1.60901L1.60884 16.7C1.43007 16.8666 1.19362 16.9573 0.949299 16.9529C0.704982 16.9486 0.471877 16.8496 0.299092 16.6768C0.126307 16.504 0.0273336 16.2709 0.0230229 16.0265C0.0187122 15.7822 0.109401 15.5457 0.275983 15.3669L15.3649 0.27598C15.5418 0.099353 15.7815 0.000143433 16.0314 0.000143433C16.2813 0.000143433 16.521 0.099353 16.6978 0.27598Z" fill="var(--fill-0, #939393)"/>
</g>
</svg>
