<svg preserveAspectRatio="none" width="100%" height="100%" overflow="visible" style="display: block;" viewBox="0 0 17.1834 17.1834" fill="none" xmlns="http://www.w3.org/2000/svg">
<g id="material-symbols:warning-outline-rounded">
<path id="Vector" d="M1.95079 15.0358C1.81953 15.0358 1.7002 15.0031 1.59281 14.9377C1.48541 14.8723 1.40188 14.7857 1.34222 14.6778C1.28255 14.5699 1.24985 14.4535 1.24413 14.3284C1.2384 14.2034 1.27109 14.0812 1.34222 13.9618L7.965 2.50621C8.03659 2.38688 8.12919 2.29739 8.24279 2.23772C8.3564 2.17806 8.47262 2.14823 8.59147 2.14823C8.71033 2.14823 8.82679 2.17806 8.94087 2.23772C9.05495 2.29739 9.14731 2.38688 9.21795 2.50621L15.8407 13.9618C15.9123 14.0812 15.9453 14.2036 15.9395 14.3291C15.9338 14.4547 15.9009 14.5709 15.8407 14.6778C15.7806 14.7847 15.6971 14.8714 15.5901 14.9377C15.4832 15.0041 15.3639 15.0368 15.2322 15.0358H1.95079ZM3.18585 13.6038H13.9971L8.59147 4.29615L3.18585 13.6038ZM9.10197 12.6824C9.23896 12.5449 9.30745 12.3748 9.30745 12.1719C9.30745 11.969 9.23872 11.7991 9.10125 11.6621C8.96378 11.5251 8.79386 11.4564 8.59147 11.4559C8.38909 11.4554 8.21917 11.5242 8.0817 11.6621C7.94423 11.8001 7.8755 11.97 7.8755 12.1719C7.8755 12.3738 7.94423 12.544 8.0817 12.6824C8.21917 12.8208 8.38909 12.8893 8.59147 12.8879C8.79386 12.8864 8.96402 12.8184 9.10197 12.6824ZM9.10197 10.5337C9.23896 10.3967 9.30745 10.2268 9.30745 10.024V7.87604C9.30745 7.67318 9.23872 7.50325 9.10125 7.36626C8.96378 7.22927 8.79386 7.16054 8.59147 7.16006C8.38909 7.15958 8.21917 7.22832 8.0817 7.36626C7.94423 7.50421 7.8755 7.67413 7.8755 7.87604V10.024C7.8755 10.2268 7.94423 10.397 8.0817 10.5345C8.21917 10.6719 8.38909 10.7404 8.59147 10.7399C8.79386 10.7395 8.96402 10.6707 9.10197 10.5337Z" fill="var(--fill-0, white)" fill-opacity="0.8"/>
</g>
</svg>
